<svg width="1000" height="1000" viewBox="0 0 1000 1000" fill="none" xmlns="http://www.w3.org/2000/svg">
<g clip-path="url(#clip0_1369_1167)">
<circle cx="500" cy="500.113" r="494.822" fill="#121642" stroke="#D85050" stroke-width="10.3569"/>
<path d="M390.075 696.174L390.087 696.186L390.099 696.198C415.845 722.496 451.234 735.379 495.59 735.379C542.791 735.379 580.271 722.214 607.33 695.29C634.72 668.36 648.127 631.038 648.127 584.028V455.633V450.538H643.031H609.566H604.47V455.633V496.393H395.926V455.633V450.538H390.83H357.365H352.269V455.633V587.89C352.269 633.552 364.669 669.878 390.075 696.174ZM421.194 657.743L421.179 657.727L421.163 657.712C404.631 640.659 395.926 614.803 395.926 579.202V545.199H604.47V584.028C604.47 617.498 595.07 642.003 577.032 658.459L576.999 658.489L576.967 658.52C559.176 675.326 532.354 684.159 495.59 684.159C462.232 684.159 437.729 675.097 421.194 657.743Z" stroke="#D85050" stroke-width="10.1912"/>
<path d="M415.373 490.733L416.524 494.238H420.214H458.044H461.711L462.876 490.761L501.612 375.106L539.042 490.712L540.183 494.238H543.89H580.75H584.468L585.602 490.697L641.213 317.092H678.72H683.816V311.996V282.069V276.974H678.72H578.81H573.714V282.069V311.996V317.092H578.81H597.993L571.537 398.758L571.535 398.765L571.532 398.772L561.881 428.869L551.668 396.411L551.66 396.385L524.993 310.01L523.884 306.418H520.124H483.264H479.516L478.4 309.996L452.21 393.984L452.205 393.998L452.201 394.013L441.934 427.632L430.889 392.988L430.886 392.978L430.883 392.969L406.361 317.092H430.884H435.98V311.996V282.069V276.974H430.884H321.273H316.178V282.069V311.996V317.092H321.273H358.324L415.373 490.733Z" stroke="#D85050" stroke-width="10.1912"/>
<path d="M68.6829 528.561H107.36V518.487H80.9009V503.801H105.863V494.253H80.9009V480.255H107.36V470.181H68.6829V528.561ZM137.5 529.572C152.226 529.572 161.046 522.452 161.046 511.245V511.205C161.046 502.021 155.544 497.045 143.326 494.617L137.136 493.363C130.42 492.028 127.426 489.884 127.426 486.202V486.162C127.426 481.995 131.189 479.122 137.459 479.082C143.488 479.082 147.695 481.873 148.302 486.445L148.342 486.931H159.873L159.832 486.162C159.266 475.926 150.972 469.17 137.459 469.17C124.513 469.17 115.208 476.209 115.208 486.89V486.931C115.208 495.71 121.034 501.212 132.564 503.518L138.714 504.731C145.955 506.228 148.828 508.211 148.828 512.176V512.216C148.828 516.666 144.58 519.62 137.824 519.62C131.148 519.62 126.334 516.788 125.565 512.256L125.484 511.811H113.954L113.995 512.459C114.682 523.22 123.623 529.572 137.5 529.572Z" fill="white"/>
<path d="M849.78 469.17C836.794 469.17 827.286 477.625 827.286 489.56V489.641C827.286 500.605 835.013 508.575 846.301 508.575C854.19 508.575 859.935 504.61 862.241 499.189H862.443C862.484 499.836 862.443 500.645 862.403 501.414C861.958 511.731 858.236 519.862 849.699 519.862C844.925 519.862 841.689 517.475 840.232 513.956L840.111 513.632H828.055L828.136 513.996C829.875 523.018 838.371 529.572 849.659 529.572C864.871 529.572 874.135 518.042 874.135 498.906V498.825C874.135 479.041 863.859 469.17 849.78 469.17ZM849.821 499.553C843.752 499.553 839.18 495.305 839.18 489.237V489.156C839.18 483.37 843.995 478.88 849.942 478.88C855.93 478.88 860.623 483.411 860.623 489.317V489.358C860.623 495.305 855.93 499.553 849.821 499.553ZM904.356 529.572C918.274 529.572 927.862 522.654 927.862 512.621V512.54C927.862 504.974 922.238 499.391 914.43 497.854V497.611C921.146 495.952 925.758 491.057 925.758 484.827V484.746C925.758 475.724 916.938 469.17 904.356 469.17C891.734 469.17 882.955 475.724 882.955 484.746V484.827C882.955 491.057 887.526 495.952 894.283 497.611V497.854C886.434 499.391 880.811 504.974 880.811 512.54V512.621C880.811 522.654 890.439 529.572 904.356 529.572ZM904.356 493.93C898.854 493.93 895.011 490.653 895.011 485.96V485.879C895.011 481.226 898.895 477.99 904.356 477.99C909.818 477.99 913.661 481.226 913.661 485.879V485.96C913.661 490.653 909.859 493.93 904.356 493.93ZM904.356 520.671C897.964 520.671 893.474 516.949 893.474 511.811V511.731C893.474 506.552 897.924 502.79 904.356 502.79C910.789 502.79 915.199 506.552 915.199 511.731V511.811C915.199 516.949 910.708 520.671 904.356 520.671Z" fill="white"/>
<path d="M173.792 286.131L187.498 268.551C198.269 254.735 196.029 239.908 181.416 228.515L181.352 228.466C166.771 217.098 152.203 218.873 141.457 232.657L127.751 250.237L173.792 286.131ZM173.328 270.277L143.208 246.795L148.507 239.999C155.098 231.544 164.119 230.83 173.723 238.318L173.786 238.367C183.741 246.128 185.342 254.866 178.626 263.481L173.328 270.277Z" fill="white"/>
<path d="M216.108 233.695L225.655 225.131L219.483 211.646L234.843 197.869L247.58 205.466L257.127 196.903L202.998 167.031L192.307 176.621L216.108 233.695ZM205.111 180.354L205.291 180.192L226.629 192.954L215.486 202.949L205.111 180.354Z" fill="white"/>
<path d="M284.736 178.078L297.38 170.216L283.147 110.321L271.638 117.478L284.56 163.467L284.354 163.595L248.791 131.684L237.315 138.819L284.736 178.078Z" fill="white"/>
<path d="M331.315 151.979L342.439 146.924L318.289 93.7746L307.165 98.8289L331.315 151.979Z" fill="white"/>
<path d="M361.48 138.293L382.815 131.832C399.581 126.755 406.3 113.349 400.93 95.6154L400.907 95.538C395.548 77.8427 382.622 70.8932 365.895 75.9585L344.56 82.4191L361.48 138.293ZM370.242 125.072L359.173 88.5195L367.421 86.022C377.682 82.9148 385.463 87.5332 388.993 99.188L389.016 99.2655C392.674 111.346 388.944 119.408 378.49 122.574L370.242 125.072Z" fill="white"/>
<path d="M468.976 114.363L480.909 114.142L490.943 74.8276L491.186 74.8231L502.631 113.739L514.563 113.518L528.973 54.8616L516.312 55.0964L507.825 97.0933L507.582 97.0978L496.047 55.4722L485.328 55.671L475.344 97.6956L475.101 97.7002L465.103 56.0461L452.442 56.2809L468.976 114.363Z" fill="white"/>
<path d="M545.068 115.317L557.673 117.682L564.617 104.578L584.897 108.382L586.62 123.112L599.225 125.477L589.988 64.3464L575.872 61.6984L545.068 115.317ZM580.702 74.13L580.941 74.1748L583.799 98.8733L569.087 96.1135L580.702 74.13Z" fill="white"/>
<path d="M627.701 134.123L638.742 138.653L663.55 106.546L663.774 106.638L658.841 146.901L669.882 151.432L706.38 103.306L694.665 98.4985L670.213 133.682L669.988 133.59L675.914 90.8037L665.995 86.7336L640.158 121.349L639.934 121.257L647.281 79.0541L635.566 74.2468L627.701 134.123Z" fill="white"/>
<path d="M700.18 167.569L732.529 188.769L738.05 180.344L715.92 165.841L723.97 153.558L744.848 167.24L750.082 159.255L729.204 145.572L736.877 133.864L759.006 148.367L764.528 139.942L732.179 118.742L700.18 167.569Z" fill="white"/>
<path d="M748.357 200.645L757.409 208.851L771.621 193.175L778.874 199.751L772.726 222.736L782.977 232.029L789.299 206.744C795.806 209.203 803.127 207.212 808.29 201.517L808.344 201.457C816.224 192.764 815.143 182.392 805.431 173.588L787.567 157.393L748.357 200.645ZM777.843 186.311L790.207 172.673L797.91 179.656C802.376 183.705 802.832 188.924 799.082 193.06L799.028 193.12C795.169 197.377 790.162 197.479 785.666 193.403L777.843 186.311Z" fill="white"/>
<path d="M809.636 265.052C818.89 276.921 831.52 278.975 841.73 271.016L871.499 247.808L863.987 238.172L835.08 260.708C829.113 265.36 822.63 264.874 817.804 258.684C812.979 252.494 814.064 246.057 820.031 241.405L848.938 218.869L841.425 209.233L811.657 232.441C801.415 240.426 800.433 253.247 809.636 265.052Z" fill="white"/>
<path d="M500.734 951.568H523.632C541.625 951.568 552.222 940.389 552.222 921.357V921.273C552.222 902.282 541.584 891.603 523.632 891.603H500.734V951.568ZM513.284 941.179V901.95H522.136C533.148 901.95 539.423 908.807 539.423 921.315V921.398C539.423 934.364 533.356 941.179 522.136 941.179H513.284Z" fill="white"/>
<path d="M500.426 891.604H477.529C459.535 891.604 448.938 902.782 448.938 921.815V921.898C448.938 940.889 459.576 951.569 477.529 951.569H500.426V891.604ZM487.876 901.993V941.221H479.025C468.012 941.221 461.737 934.365 461.737 921.856V921.773C461.737 908.808 467.804 901.993 479.025 901.993H487.876Z" fill="white"/>
<path d="M177.488 498.943H183.597V474.79H192.053V469.753H169.053V474.79H177.488V498.943Z" fill="white"/>
<line x1="165.957" y1="526.793" x2="195.744" y2="526.793" stroke="white" stroke-width="6.21416"/>
</g>
<defs>
<clipPath id="clip0_1369_1167">
<rect width="1000" height="1000" fill="white"/>
</clipPath>
</defs>
</svg>
